<svg xmlns="http://www.w3.org/2000/svg" xmlns:xlink="http://www.w3.org/1999/xlink"><symbol id="logo">
    <path d="M8.816 15.576c-3.384 0-5.976-2.736-5.976-6.096s2.592-6.096 5.976-6.096c3.36 0 5.952 2.736 5.952 6.096s-2.592 6.096-5.952 6.096zm0 2.712a8.768 8.768 0 008.808-8.808A8.768 8.768 0 008.816.672C3.92.672.008 4.56.008 9.48s3.912 8.808 8.808 8.808zM23.106 18h2.807v-7.488h1.272L33.425 18h3.456l-6.336-7.656c2.472-.552 3.864-2.136 3.864-4.536C34.41 3 32.417.96 29.25.96h-6.144V18zm2.807-9.936V3.552h3c1.656 0 2.688.792 2.688 2.256 0 1.464-1.032 2.256-2.688 2.256h-3zM40.973 18h2.809V.96h-2.808V18zm17.521.288c2.616 0 5.256-.792 6.792-2.448v-7.8h-7.008v2.64h4.272v3.792c-.96.792-2.544 1.104-4.08 1.104-3.912 0-6.36-2.64-6.36-6.096 0-3.36 2.52-6.096 6.096-6.096 2.088 0 3.552.72 4.68 1.848l1.92-1.992c-1.608-1.632-3.792-2.568-6.6-2.568-5.136 0-8.928 3.888-8.928 8.808 0 4.992 3.84 8.808 9.216 8.808zM71.086 18h2.808V.96h-2.808V18zm24.24 0V.96h-2.831V13.2L82.919.96H80.47V18h2.808V5.736L92.879 18h2.448zm4.584 0h2.904l1.92-4.464h7.632L114.31 18h2.928L109.798.96h-2.448L99.91 18zm8.64-13.248l2.736 6.288h-5.472l2.736-6.288zM121.833 18h10.608v-2.688h-7.8V.96h-2.808V18z"/>
</symbol><symbol id="menu-open">
    <rect width="20" height="2" rx="1"/>
    <rect y="6" width="20" height="2" rx="1"/>
    <rect x="10" y="12" width="10" height="2" rx="1"/>
</symbol><symbol id="phone">
    <path d="M6.51 3.428L4.57 1.35c-.18-.193-.499-.204-.713-.026L2.326 2.598C.388 4.213 2.921 7.668 4.87 9.76c1.937 2.078 5.273 4.918 7.212 3.304l1.531-1.276c.214-.178.242-.479.062-.672l-1.938-2.079c-.18-.193-.499-.205-.713-.026l-1.531 1.275s-.694-.043-2.676-2.132c-1.982-2.089-1.9-2.777-1.9-2.777L6.447 4.1c.214-.179.242-.48.062-.673z" stroke-width="1.5" stroke-linecap="round" stroke-linejoin="round"/>
</symbol></svg>