<svg width="37" height="37" fill="none" xmlns="http://www.w3.org/2000/svg"><path fill-rule="evenodd" clip-rule="evenodd" d="M18.43.6c-4.841 0-5.449.021-7.35.108-1.899.086-3.194.387-4.328.828a8.73 8.73 0 00-3.158 2.056A8.752 8.752 0 001.536 6.75C1.094 7.884.793 9.18.708 11.077.623 12.979.6 13.587.6 18.429c0 4.842.021 5.447.107 7.35.088 1.897.388 3.193.829 4.326a8.735 8.735 0 002.056 3.159A8.73 8.73 0 006.75 35.32c1.134.441 2.43.742 4.328.829 1.902.086 2.509.107 7.35.107 4.843 0 5.449-.02 7.35-.107 1.899-.087 3.196-.388 4.33-.829a8.723 8.723 0 003.156-2.057 8.751 8.751 0 002.058-3.158c.438-1.134.739-2.43.828-4.328.085-1.901.108-2.507.108-7.35 0-4.841-.023-5.45-.108-7.35-.09-1.899-.39-3.194-.828-4.328a8.75 8.75 0 00-2.058-3.158 8.714 8.714 0 00-3.157-2.056c-1.137-.441-2.433-.742-4.331-.828C23.874.62 23.269.6 18.426.6h.005zm-1.6 3.213h1.6c4.76 0 5.325.017 7.205.102 1.738.08 2.681.37 3.31.614.832.323 1.425.71 2.049 1.333a5.533 5.533 0 011.334 2.05c.244.629.535 1.572.614 3.31.085 1.88.104 2.444.104 7.202s-.019 5.323-.104 7.202c-.08 1.739-.37 2.682-.614 3.31a5.511 5.511 0 01-1.334 2.048 5.513 5.513 0 01-2.05 1.333c-.627.245-1.571.535-3.31.615-1.879.085-2.443.104-7.204.104-4.76 0-5.325-.019-7.204-.104-1.738-.08-2.682-.37-3.31-.615a5.522 5.522 0 01-2.05-1.333 5.526 5.526 0 01-1.335-2.05c-.244-.627-.535-1.57-.614-3.31-.085-1.878-.103-2.443-.103-7.204 0-4.761.018-5.323.103-7.202.08-1.738.37-2.682.614-3.31a5.524 5.524 0 011.334-2.05 5.534 5.534 0 012.05-1.335c.629-.245 1.573-.535 3.311-.615 1.645-.074 2.282-.096 5.605-.1v.005zm8.978 5.099a2.14 2.14 0 114.278.001 2.14 2.14 0 01-4.278-.001zm-7.377.36a9.156 9.156 0 00-9.156 9.157c0 5.056 4.1 9.154 9.156 9.154a9.153 9.153 0 009.154-9.154 9.155 9.155 0 00-9.154-9.156zm5.944 9.157a5.943 5.943 0 10-11.886 0 5.943 5.943 0 0011.886 0z" fill="#fff"/></svg>