<svg width="36" height="21" fill="none" xmlns="http://www.w3.org/2000/svg"><path d="M19.75 20.399s.643-.07.972-.418c.302-.318.291-.92.291-.92s-.04-2.805 1.288-3.22c1.308-.407 2.987 2.714 4.77 3.914 1.346.907 2.368.709 2.368.709l4.763-.065s2.49-.15 1.31-2.073c-.098-.158-.69-1.423-3.541-4.022-2.987-2.72-2.586-2.28 1.01-6.986 2.19-2.866 3.066-4.615 2.792-5.363-.26-.716-1.871-.526-1.871-.526l-5.361.033s-.398-.053-.693.12c-.287.169-.474.564-.474.564s-.848 2.217-1.98 4.104c-2.387 3.978-3.341 4.189-3.732 3.942-.908-.577-.682-2.314-.682-3.548 0-3.857.597-5.465-1.16-5.88-.582-.14-1.01-.23-2.502-.246-1.913-.018-3.532.007-4.449.447-.61.293-1.081.947-.793.985.354.046 1.156.212 1.581.78.55.735.53 2.381.53 2.381s.316 4.54-.737 5.104c-.722.386-1.713-.403-3.842-4.013-1.09-1.849-1.913-3.893-1.913-3.893s-.16-.382-.443-.587c-.344-.248-.823-.325-.823-.325l-5.095.032s-.765.02-1.046.348c-.25.289-.02.89-.02.89s3.99 9.16 8.506 13.777c4.142 4.232 8.844 3.955 8.844 3.955h2.131z" fill="#fff"/></svg>