<svg width="37" height="37" viewBox="0 0 37 37" fill="none" xmlns="http://www.w3.org/2000/svg">
<path fill-rule="evenodd" clip-rule="evenodd" d="M18.4308 0.599854C13.5888 0.599854 12.9812 0.621033 11.0794 0.707581C9.18142 0.794495 7.88586 1.09497 6.75225 1.53586C5.57964 1.99124 4.58494 2.6004 3.59396 3.59174C2.60224 4.58273 1.99309 5.57742 1.53622 6.74966C1.09422 7.88364 0.793359 9.17957 0.70793 11.0768C0.622872 12.9786 0.600586 13.5866 0.600586 18.4286C0.600586 23.2706 0.622129 23.8764 0.708301 25.7781C0.795588 27.6762 1.09608 28.9717 1.5366 30.1053C1.99234 31.278 2.60149 32.2726 3.59285 33.2636C4.58346 34.2553 5.57815 34.866 6.75002 35.3214C7.88438 35.7622 9.1803 36.0627 11.078 36.1496C12.9797 36.2362 13.587 36.2574 18.4286 36.2574C23.271 36.2574 23.8768 36.2362 25.7785 36.1496C27.6765 36.0627 28.9736 35.7622 30.1079 35.3214C31.2802 34.866 32.2734 34.2553 33.264 33.2636C34.2557 32.2726 34.8649 31.278 35.3217 30.1057C35.76 28.9717 36.0609 27.6758 36.15 25.7785C36.2354 23.8768 36.2577 23.2706 36.2577 18.4286C36.2577 13.5866 36.2354 12.9789 36.15 11.0772C36.0609 9.1792 35.76 7.88364 35.3217 6.75003C34.8649 5.57742 34.2557 4.58273 33.264 3.59174C32.2723 2.60001 31.2805 1.99088 30.1068 1.53586C28.9702 1.09497 27.6739 0.794495 25.7759 0.707581C23.8742 0.621033 23.2687 0.599854 18.4253 0.599854H18.4308ZM16.8309 3.81256C17.1415 3.81207 17.4756 3.81223 17.8361 3.81238L18.4303 3.81256C23.1906 3.81256 23.7548 3.82965 25.6346 3.91507C27.3729 3.99457 28.3164 4.28503 28.9448 4.52905C29.7768 4.8522 30.37 5.23849 30.9937 5.86249C31.6177 6.48651 32.0039 7.08081 32.3278 7.91281C32.5719 8.54053 32.8627 9.48398 32.9418 11.2223C33.0272 13.1017 33.0458 13.6663 33.0458 18.4243C33.0458 23.1824 33.0272 23.747 32.9418 25.6264C32.8623 27.3647 32.5719 28.3082 32.3278 28.9359C32.0047 29.7679 31.6177 30.3603 30.9937 30.9839C30.3696 31.608 29.7772 31.9943 28.9448 32.3174C28.3171 32.5625 27.3729 32.8523 25.6346 32.9317C23.7552 33.0172 23.1906 33.0357 18.4303 33.0357C13.6697 33.0357 13.1055 33.0172 11.226 32.9317C9.48771 32.8515 8.54427 32.5611 7.91544 32.317C7.08343 31.9939 6.48914 31.6076 5.86513 30.9836C5.24113 30.3596 4.85484 29.7668 4.53095 28.9344C4.28692 28.3067 3.99608 27.3633 3.91697 25.6249C3.83154 23.7455 3.81445 23.1809 3.81445 18.4199C3.81445 13.6589 3.83154 13.0973 3.91697 11.2178C3.99646 9.47952 4.28692 8.53607 4.53095 7.90759C4.85409 7.07559 5.24113 6.48129 5.86513 5.8573C6.48914 5.23331 7.08343 4.84702 7.91544 4.5231C8.5439 4.27795 9.48771 3.98825 11.226 3.90839C12.8707 3.83411 13.5081 3.81183 16.8309 3.80811V3.81256ZM25.8082 8.91174C25.8082 7.73019 26.7665 6.77301 27.9476 6.77301V6.77228C29.1288 6.77228 30.0871 7.73056 30.0871 8.91174C30.0871 10.0929 29.1288 11.0512 27.9476 11.0512C26.7665 11.0512 25.8082 10.0929 25.8082 8.91174ZM18.4307 9.27277C13.3745 9.27295 9.27525 13.3724 9.27525 18.4286C9.27525 23.4849 13.3748 27.5825 18.4311 27.5825C23.4874 27.5825 27.5854 23.4849 27.5854 18.4286C27.5854 13.3723 23.487 9.27277 18.4307 9.27277ZM24.3748 18.4288C24.3748 15.1464 21.7139 12.4858 18.4319 12.4858C15.1496 12.4858 12.489 15.1464 12.489 18.4288C12.489 21.7107 15.1496 24.3717 18.4319 24.3717C21.7139 24.3717 24.3748 21.7107 24.3748 18.4288Z" fill="white"/>
</svg>
