<svg width="15" height="15" viewBox="0 0 15 15" fill="none" xmlns="http://www.w3.org/2000/svg">
<path d="M6.50913 3.42824L4.57136 1.3494C4.39149 1.15643 4.07207 1.14457 3.85793 1.32289L2.32644 2.59824C0.387744 4.21269 2.92053 7.66872 4.86899 9.75902C6.80578 11.8368 10.1421 14.6771 12.0808 13.0627L13.6123 11.7873C13.8264 11.609 13.8542 11.308 13.6743 11.115L11.7365 9.03618C11.5567 8.84321 11.2372 8.83135 11.0231 9.00967L9.49164 10.285C9.49164 10.285 8.7977 10.2423 6.81588 8.15333C4.83406 6.0644 4.91561 5.37586 4.91561 5.37586L6.44708 4.10053C6.66122 3.9222 6.689 3.6212 6.50913 3.42824Z" stroke="#8D8F9E" stroke-width="1.5" stroke-linecap="round" stroke-linejoin="round"/>
</svg>
