<svg width="36" height="21" viewBox="0 0 36 21" fill="none" xmlns="http://www.w3.org/2000/svg">
<path d="M19.7491 20.3987C19.7491 20.3987 20.3927 20.3285 20.7223 19.981C21.024 19.6626 21.0135 19.0617 21.0135 19.0617C21.0135 19.0617 20.9734 16.2559 22.3006 15.8416C23.6086 15.4342 25.288 18.555 27.0704 19.755C28.4168 20.6623 29.4387 20.4638 29.4387 20.4638L34.2016 20.3987C34.2016 20.3987 36.692 20.2481 35.5113 18.3256C35.4137 18.1681 34.8224 16.903 31.971 14.3043C28.9836 11.5841 29.3847 12.0241 32.9808 7.3181C35.1712 4.45238 36.0467 2.70282 35.7729 1.95473C35.5131 1.23915 33.9016 1.42917 33.9016 1.42917L28.5406 1.4617C28.5406 1.4617 28.143 1.40863 27.8482 1.58153C27.5605 1.75101 27.3739 2.14646 27.3739 2.14646C27.3739 2.14646 26.5263 4.36336 25.3944 6.24987C23.0069 10.2283 22.0529 10.4389 21.6623 10.1924C20.7537 9.61546 20.9804 7.87789 20.9804 6.64361C20.9804 2.78671 21.5768 1.17924 19.8206 0.763245C19.2381 0.624581 18.8091 0.533851 17.318 0.518443C15.4048 0.499613 13.7864 0.525291 12.8691 0.965248C12.2587 1.25798 11.7878 1.91193 12.0756 1.94959C12.4296 1.99581 13.2318 2.16186 13.6574 2.73021C14.2067 3.46462 14.1875 5.11146 14.1875 5.11146C14.1875 5.11146 14.5032 9.65141 13.4498 10.2146C12.7278 10.6015 11.7372 9.81233 9.60781 6.20194C8.51782 4.35309 7.69465 2.30909 7.69465 2.30909C7.69465 2.30909 7.53595 1.92733 7.25168 1.72191C6.90811 1.47368 6.42851 1.39665 6.42851 1.39665L1.33431 1.42917C1.33431 1.42917 0.5687 1.44972 0.287917 1.77669C0.0385265 2.066 0.268733 2.66687 0.268733 2.66687C0.268733 2.66687 4.25724 11.8272 8.77418 16.4442C12.9162 20.676 17.618 20.3987 17.618 20.3987H19.7491Z" fill="white"/>
</svg>
