<svg width="133" height="19" viewBox="0 0 133 19" fill="none" xmlns="http://www.w3.org/2000/svg">
<path d="M8.816 15.576C5.432 15.576 2.84 12.84 2.84 9.48C2.84 6.12 5.432 3.384 8.816 3.384C12.176 3.384 14.768 6.12 14.768 9.48C14.768 12.84 12.176 15.576 8.816 15.576ZM8.816 18.288C13.688 18.288 17.624 14.4 17.624 9.48C17.624 4.56 13.688 0.671999 8.816 0.671999C3.92 0.671999 0.00800008 4.56 0.00800008 9.48C0.00800008 14.4 3.92 18.288 8.816 18.288ZM23.1052 18H25.9132V10.512H27.1852L33.4252 18H36.8812L30.5452 10.344C33.0172 9.792 34.4092 8.208 34.4092 5.808C34.4092 3 32.4172 0.959999 29.2492 0.959999H23.1052V18ZM25.9132 8.064V3.552H28.9132C30.5692 3.552 31.6012 4.344 31.6012 5.808C31.6012 7.272 30.5692 8.064 28.9132 8.064H25.9132ZM40.9739 18H43.7819V0.959999H40.9739V18ZM58.4943 18.288C61.1103 18.288 63.7503 17.496 65.2863 15.84V8.04H58.2783V10.68H62.5503V14.472C61.5903 15.264 60.0063 15.576 58.4703 15.576C54.5583 15.576 52.1103 12.936 52.1103 9.48C52.1103 6.12 54.6303 3.384 58.2063 3.384C60.2943 3.384 61.7583 4.104 62.8863 5.232L64.8063 3.24C63.1983 1.608 61.0143 0.671999 58.2063 0.671999C53.0703 0.671999 49.2783 4.56 49.2783 9.48C49.2783 14.472 53.1183 18.288 58.4943 18.288ZM71.0864 18H73.8944V0.959999H71.0864V18ZM95.3268 18V0.959999H92.4948V13.2L82.9188 0.959999H80.4708V18H83.2788V5.736L92.8788 18H95.3268ZM99.9101 18H102.814L104.734 13.536H112.366L114.31 18H117.238L109.798 0.959999H107.35L99.9101 18ZM108.55 4.752L111.286 11.04H105.814L108.55 4.752ZM121.833 18H132.441V15.312H124.641V0.959999H121.833V18Z" fill="#FCFCFD"/>
</svg>
