<?xml version="1.0" standalone="no"?>
<!DOCTYPE svg PUBLIC "-//W3C//DTD SVG 20010904//EN"
 "http://www.w3.org/TR/2001/REC-SVG-20010904/DTD/svg10.dtd">
<svg version="1.0" xmlns="http://www.w3.org/2000/svg"
 width="120.000000pt" height="120.000000pt" viewBox="0 0 120.000000 120.000000"
 preserveAspectRatio="xMidYMid meet">
<metadata>
Created by potrace 1.14, written by Peter Selinger 2001-2017
</metadata>
<g transform="translate(0.000000,120.000000) scale(0.100000,-0.100000)"
fill="#000000" stroke="none">
<path d="M489 1191 c-8 -3 -14 -15 -14 -26 0 -15 -13 -26 -50 -41 -48 -21 -51
-21 -70 -3 -20 18 -22 17 -63 -9 -42 -27 -52 -45 -31 -58 7 -4 -5 -23 -31 -49
-36 -37 -46 -42 -65 -35 -20 8 -27 3 -49 -30 -30 -46 -30 -47 -11 -66 13 -13
12 -20 -3 -62 -14 -38 -23 -48 -44 -50 -20 -2 -27 -10 -32 -34 -11 -56 -7 -80
14 -85 11 -3 20 -10 21 -17 0 -6 2 -24 4 -41 4 -41 -4 -65 -21 -65 -17 0 -18
-35 -3 -79 8 -23 17 -31 34 -31 32 0 81 -83 59 -101 -21 -17 -17 -35 17 -74
26 -29 34 -33 50 -24 16 8 28 4 59 -18 34 -24 39 -32 34 -54 -4 -23 1 -30 41
-53 47 -26 47 -26 64 -6 15 19 19 19 61 7 34 -10 46 -19 50 -37 5 -22 12 -25
58 -28 47 -3 53 -1 61 21 7 19 19 25 53 30 36 5 46 3 59 -15 16 -20 17 -20 68
-3 47 15 52 20 47 41 -5 20 1 28 34 49 34 21 43 23 65 13 24 -11 29 -8 62 24
31 31 34 38 23 58 -10 18 -8 28 15 61 20 32 31 39 52 37 23 -3 29 3 46 45 l20
48 -20 14 c-18 12 -19 20 -12 57 4 24 8 46 9 50 0 4 10 8 23 10 20 3 22 9 22
58 0 49 -2 55 -22 58 -22 3 -26 10 -38 70 -5 25 -2 38 11 53 17 19 17 21 -3
63 -18 36 -25 43 -45 39 -18 -3 -31 5 -56 36 -28 35 -31 44 -22 62 10 17 8 25
-12 46 -36 39 -58 48 -76 30 -13 -14 -20 -13 -63 11 -27 15 -49 34 -48 42 3
33 -3 38 -48 49 -46 12 -62 6 -63 -22 0 -5 -25 -6 -56 -4 -51 4 -73 16 -74 40
0 8 -68 7 -91 -2z m291 -122 c117 -48 210 -132 261 -234 28 -58 32 -71 48
-145 9 -44 4 -152 -10 -204 -20 -73 -70 -159 -128 -217 -256 -256 -688 -154
-804 190 -61 179 -17 361 118 496 66 66 133 107 216 130 77 22 226 13 299 -16z"/>
<path d="M484 1054 c-194 -57 -334 -241 -334 -439 0 -248 192 -443 450 -460
14 -1 54 4 90 11 257 48 425 307 360 555 -56 216 -243 355 -465 348 -33 -2
-78 -8 -101 -15z"/>
</g>
</svg>
